<svg width="25" height="25" viewBox="0 0 25 25" fill="none" xmlns="http://www.w3.org/2000/svg">
<path d="M22.9995 0.00224205H2.14058C1.87172 -0.0103505 1.60301 0.030193 1.34984 0.121575C1.09668 0.212958 0.864027 0.353366 0.665188 0.534756C0.466365 0.716161 0.305259 0.935 0.191121 1.17873C0.0769829 1.42247 0.012031 1.68632 0 1.95519V22.8596C0.0157496 23.4222 0.246338 23.9576 0.644407 24.3555C1.04248 24.7536 1.57784 24.9842 2.14058 25H22.9995C23.5465 24.9756 24.0623 24.7378 24.4362 24.3377C24.8101 23.9376 25.0122 23.407 24.9994 22.8596V1.95519C25.004 1.69349 24.9549 1.43366 24.8554 1.19159C24.7558 0.94953 24.6079 0.730347 24.4205 0.547473C24.2333 0.364615 24.0107 0.221941 23.7663 0.128184C23.522 0.034427 23.261 -0.00842885 22.9995 0.00224205ZM7.81232 20.8441H4.17178V9.70453H7.81232V20.8441ZM6.07798 8.01713C5.82394 8.02599 5.57081 7.98221 5.3345 7.88857C5.09818 7.79492 4.88378 7.65342 4.70478 7.47295C4.52577 7.29248 4.38601 7.07695 4.29429 6.8399C4.20256 6.60284 4.16086 6.34938 4.17178 6.09543C4.16054 5.83874 4.20309 5.58254 4.2967 5.34327C4.39031 5.10398 4.5329 4.8869 4.71531 4.70597C4.89775 4.52502 5.11598 4.3842 5.35602 4.29255C5.59607 4.20089 5.85263 4.16042 6.10923 4.17374C6.36328 4.16489 6.61641 4.20865 6.85272 4.3023C7.08904 4.39595 7.30344 4.53745 7.48244 4.71792C7.66145 4.89839 7.80121 5.11391 7.89293 5.35097C7.98466 5.58803 8.02636 5.84149 8.01544 6.09543C8.02668 6.35213 7.98413 6.60833 7.89052 6.8476C7.79691 7.08689 7.65432 7.30397 7.47191 7.4849C7.28947 7.66585 7.07124 7.80667 6.8312 7.89832C6.59115 7.98998 6.33459 8.03045 6.07798 8.01713ZM20.8433 20.8441H17.1871V14.7509C17.1871 13.2979 16.6715 12.298 15.3746 12.298C14.9718 12.3015 14.5798 12.4294 14.2526 12.6644C13.9253 12.8994 13.6787 13.2298 13.5466 13.6104C13.445 13.8957 13.4025 14.1986 13.4216 14.501V20.8441H9.8279V9.70453H13.4216V11.2669C13.7411 10.6799 14.2165 10.1928 14.7956 9.85904C15.3746 9.52548 16.0346 9.35843 16.7027 9.37639C19.0621 9.37639 20.8433 10.9388 20.8433 14.2666V20.8441Z" fill="white"/>
</svg>
