<svg width="523" height="455" viewBox="0 0 523 455" fill="none" xmlns="http://www.w3.org/2000/svg">
<path d="M326.567 319.064C341.64 309.576 349.991 289.544 346.64 260.53L373.981 242.006C403.633 258.183 424.56 254.484 437.358 244.001L468.818 222.687C482.587 213.237 490.292 194.791 488.44 169.683C484.732 118.836 444.787 59.6551 399.239 37.4878C362.25 19.4863 343.1 36.4164 343.1 36.4164L311.33 57.941C297.35 66.0542 286.271 83.978 290.119 117.246C290.119 117.246 260.501 137.312 262.778 135.77C237.15 121.788 215.504 122.11 201.118 132.611L170.301 153.491C155.084 162.32 146.377 181.204 148.339 208.079C152.048 258.926 191.993 318.107 237.541 340.274C261.808 352.068 282.607 350.81 296.349 339.536L326.567 319.064Z" fill="#FFE167"/>
<path d="M327.767 318.25L296.328 339.55C282.607 350.81 261.787 352.082 237.52 340.288C191.972 318.121 152.027 258.94 148.319 208.093C146.357 181.218 155.063 162.334 170.28 153.504L202.05 131.98C188.342 141.388 180.56 159.585 182.428 184.984C186.136 235.831 226.081 295.012 271.629 317.179C294.413 328.255 314.046 327.637 327.767 318.25ZM468.818 222.687C419.596 256.427 329.065 166.262 323.464 89.3997C321.617 63.9867 329.4 45.7894 343.086 36.3957L311.316 57.9202C297.336 66.0334 286.257 83.9572 290.105 117.225L253.223 142.213L253.307 142.338C243.659 148.421 238.204 160.874 239.479 178.31C241.944 212.213 268.581 251.662 298.951 266.447C314.707 274.102 328.272 273.488 337.442 266.52L337.568 266.706L374.016 242.013C403.668 258.19 424.595 254.49 437.393 244.008L468.818 222.687Z" fill="#E1C54F"/>
<path d="M164.572 262.882L49.9726 340.524L50.0006 340.566L78.0176 381.918L136.549 342.263C151.895 320.119 163.623 297.316 171.109 274.669C168.812 270.789 166.572 266.902 164.572 262.882Z" fill="#72C0AB"/>
<path d="M171.109 274.669C163.644 297.302 151.895 320.119 136.549 342.263L192.452 304.388C184.444 295.288 177.338 285.245 171.109 274.669Z" fill="#569080"/>
</svg>
