<svg width="25" height="25" viewBox="0 0 25 25" fill="none" xmlns="http://www.w3.org/2000/svg">
<path fill-rule="evenodd" clip-rule="evenodd" d="M1 0C0.447715 0 0 0.447716 0 1V24C0 24.5523 0.447716 25 1 25H24C24.5523 25 25 24.5523 25 24V1C25 0.447715 24.5523 0 24 0H1ZM20.1787 8.1145C20.9587 8.99262 21.4286 10.1136 21.4286 11.4842C21.4286 16.3088 18.5842 17.3701 15.8743 17.6805C15.9352 17.7344 16.0177 17.7963 16.1147 17.8691C16.7152 18.3195 17.8697 19.1854 17.8697 21.1513C17.8697 22.08 17.8559 25 17.8559 25H9.48603C9.48603 24.9364 9.48739 24.8202 9.48907 24.6764C9.49527 24.1464 9.50584 23.2421 9.46879 23.2235C4.81745 24.5963 4.20171 21.5404 4.20171 21.5404C3.64801 20.09 2.85077 19.7032 2.85077 19.7032C1.7468 18.924 2.93463 18.9397 2.93463 18.9397C4.15576 19.0286 4.79792 20.2339 4.79792 20.2339C5.8835 22.1531 8.81514 21.1682 9.50785 20.8466C9.50785 18.8678 11.4493 17.6906 11.4493 17.6906C8.74852 17.3735 5.90878 16.2964 5.90878 11.4842C5.90878 10.1136 6.38206 8.99262 7.16092 8.1145C7.03571 7.79631 6.61756 6.51905 7.2804 4.79092C7.2804 4.79092 8.30164 4.45362 10.6256 6.07831C11.5952 5.79946 12.6359 5.66005 13.6698 5.65555C14.7037 5.66005 15.7445 5.79946 16.7152 6.07831C19.038 4.45362 20.0581 4.79092 20.0581 4.79092C20.7209 6.51905 20.3039 7.79631 20.1787 8.1145Z" fill="white"/>
</svg>
